<?xml version="1.0" encoding="UTF-8" standalone="no"?>
<!-- Created with Inkscape (http://www.inkscape.org/) -->

<svg
   xmlns:dc="http://purl.org/dc/elements/1.1/"
   xmlns:cc="http://creativecommons.org/ns#"
   xmlns:rdf="http://www.w3.org/1999/02/22-rdf-syntax-ns#"
   xmlns:svg="http://www.w3.org/2000/svg"
   xmlns="http://www.w3.org/2000/svg"
   xmlns:sodipodi="http://sodipodi.sourceforge.net/DTD/sodipodi-0.dtd"
   xmlns:inkscape="http://www.inkscape.org/namespaces/inkscape"
   width="91.339523mm"
   height="66.257111mm"
   viewBox="0 0 91.339523 66.257111"
   version="1.1"
   id="svg4208"
   inkscape:version="0.92.3 (2405546, 2018-03-11)"
   sodipodi:docname="logowhite.svg">
  <defs
     id="defs4202" />
  <sodipodi:namedview
     id="base"
     pagecolor="#ffffff"
     bordercolor="#666666"
     borderopacity="1.0"
     inkscape:pageopacity="0.0"
     inkscape:pageshadow="2"
     inkscape:zoom="1.3674419"
     inkscape:cx="194.28571"
     inkscape:cy="83.777442"
     inkscape:document-units="mm"
     inkscape:current-layer="layer1"
     showgrid="false"
     fit-margin-top="0"
     fit-margin-left="0"
     fit-margin-right="0"
     fit-margin-bottom="0"
     inkscape:window-width="1366"
     inkscape:window-height="705"
     inkscape:window-x="-4"
     inkscape:window-y="-4"
     inkscape:window-maximized="1" />
  <metadata
     id="metadata4205">
    <rdf:RDF>
      <cc:Work
         rdf:about="">
        <dc:format>image/svg+xml</dc:format>
        <dc:type
           rdf:resource="http://purl.org/dc/dcmitype/StillImage" />
        <dc:title></dc:title>
      </cc:Work>
    </rdf:RDF>
  </metadata>
  <g
     inkscape:label="Layer 1"
     inkscape:groupmode="layer"
     id="layer1"
     transform="translate(-33.705242,-80.930969)">
    <rect
       y="152.22218"
       x="76.693069"
       height="47.437771"
       width="47.437771"
       id="rect3026"
       style="opacity:1;fill:#fef966;fill-opacity:1;stroke:none;stroke-width:0.49339244;stroke-miterlimit:4;stroke-dasharray:none;stroke-opacity:1" />
    <g
       transform="matrix(0.55626993,0,0,0.55626993,33.37148,80.8568)"
       id="g1746"
       style="fill:#ffffff;fill-opacity:1">
      <path
         style="fill:#ffffff;fill-opacity:1"
         inkscape:connector-curvature="0"
         class="st0"
         d="m 63.6,86.6 c 0.6,-1 1.2,-1.9 1.7,-2.9 0.4,-0.7 0.8,-0.7 1.4,-0.4 1.7,0.8 2.2,2.2 1.3,3.8 -1.5,2.7 -2.9,5.5 -4.3,8.3 -0.5,1 -0.6,2.2 -0.8,3.3 0.1,0.1 0.3,0.1 0.4,0.2 0.4,-0.3 0.9,-0.6 1.2,-1 2.5,-2.9 4.8,-5.8 6.2,-9.3 1,-2.5 2.3,-4.9 4.4,-6.8 2.1,-1.9 4.3,-1.5 5.7,0.7 -1,0.9 -2.1,1.7 -2.9,2.7 -2.2,2.8 -3.8,5.9 -4.9,9.2 -0.2,0.5 -0.3,1.1 -0.4,1.7 0.1,0.1 0.2,0.2 0.3,0.2 0.4,-0.4 0.8,-0.8 1.1,-1.2 2.4,-3.9 4.8,-7.8 7.1,-11.8 2.6,-4.5 5.1,-9 7.7,-13.5 0.3,-0.6 0.7,-0.7 1.3,-0.4 1.3,0.6 1.9,2 1.3,3.6 -0.3,1 -0.9,1.9 -1.4,2.8 -2.7,4.9 -5.4,9.7 -8,14.6 -0.6,1.1 -0.9,2.3 -1.3,3.5 -0.1,0.3 0,0.7 -0.1,1.5 0.7,-0.5 1.1,-0.7 1.4,-1 1.9,-2.5 3.8,-5 5.6,-7.6 1.5,-2.1 2.7,-4.4 4.3,-6.4 1,-1.3 2.4,-2.5 3.8,-3.5 0.7,-0.5 1.9,-0.5 2.8,-0.3 1.9,0.4 2.7,1.9 2.2,3.8 -0.7,2.7 -2,5 -3.7,7.2 -1,1.2 -2.2,1.9 -3.7,1.2 -0.1,0.2 -0.2,0.2 -0.3,0.3 -0.3,1.1 -0.9,2.3 0.2,3.1 1.2,0.8 2.3,-0.1 3,-1 1.9,-2.2 3.7,-4.6 5.5,-6.9 0.7,-0.9 1.1,-2.2 2,-2.8 1.8,-1.4 2.4,-3.4 3.4,-5.2 0.4,-0.7 0.5,-1.4 0.8,-2.2 1.2,-0.1 2.2,0.4 3,1.2 0.8,0.8 0.7,1.7 0.2,2.7 -1.4,2.6 -2.8,5.3 -4.2,7.9 -0.2,0.5 -0.5,1 -0.5,1.6 1.5,-2.2 3.1,-4.4 4.5,-6.7 1.7,-2.7 3.4,-5.5 5.1,-8.2 0.1,-0.2 0.5,-0.4 0.7,-0.4 1.3,0.1 2.4,0.6 3.1,1.7 0.5,0.8 0.3,1.5 -0.1,2.3 -1.3,2.3 -2.6,4.7 -3.8,7.1 -0.3,0.5 -0.5,1.1 -0.6,1.8 1,-1.4 2,-2.9 2.9,-4.3 2.2,-3.3 4.3,-6.6 6.5,-9.9 0.1,-0.2 0.4,-0.6 0.5,-0.5 1,0.4 2.1,0.7 3,1.4 0.8,0.6 0.7,1.6 0.2,2.6 -1.7,3.3 -3.4,6.7 -5.1,10.1 -0.3,0.5 -0.3,1.2 -0.4,1.7 0.1,0.1 0.2,0.2 0.3,0.2 0.5,-0.4 1.1,-0.7 1.5,-1.2 2.1,-2.8 4.2,-5.7 6.3,-8.5 1.1,-1.5 2.1,-3 3,-4.6 0.7,-1.2 1.1,-2.5 1.6,-4 1.2,-0.1 2.2,0.5 3.1,1.5 0.7,0.8 0.5,1.7 0.1,2.6 -1.2,2.2 -2.5,4.5 -3.7,6.7 -0.5,1 -1,2.1 -1.5,3.1 0.1,0.1 0.2,0.1 0.3,0.2 0.5,-0.5 1.1,-1 1.5,-1.6 3.4,-4.7 6.7,-9.5 10,-14.3 0.2,-0.2 0.5,-0.5 0.8,-0.4 2.5,0.1 3.7,2.2 2.6,4.4 -2,4.3 -4.1,8.5 -6.2,12.8 -0.1,0.3 -0.2,0.5 -0.4,0.8 0.1,0.1 0.2,0.1 0.2,0.2 1.6,-2 3.2,-3.9 4.7,-5.9 1.5,-2 2.9,-4.1 4.3,-6.1 0.2,-0.3 0.3,-0.6 0.5,-0.8 0.4,-0.3 0.9,-0.4 1.3,-0.7 0,0.5 0.1,1.1 -0.1,1.4 -1.5,2.3 -3,4.6 -4.7,6.8 -2.1,2.6 -4.4,5 -6.6,7.5 -0.6,0.7 -1.1,1.5 -1.6,2.3 -1.2,1.8 -2.3,3.8 -3.7,5.4 -2,2.2 -4.4,1.7 -5.9,-0.9 2,-1.8 4,-3.5 5.9,-5.4 0.5,-0.5 1,-1.1 1.2,-1.8 1.5,-3.9 2.9,-7.8 4.3,-11.7 0.1,-0.1 0.1,-0.3 -0.1,-0.5 -1.5,2 -2.9,4.1 -4.5,6.1 -1.5,2 -3.2,3.9 -4.8,5.8 -0.3,0.3 -0.6,0.6 -1,0.8 -1.5,1 -3.2,0.3 -3.3,-1.5 0,-0.8 0.2,-1.7 0.3,-2.7 -0.5,0.7 -0.9,1.4 -1.5,1.9 -1,1.1 -2.1,2.2 -3.2,3.3 -0.3,0.3 -0.6,0.5 -1,0.6 -1.2,0.6 -2.6,1.2 -3.9,0.3 -1.3,-0.9 -1.1,-2.4 -0.8,-3.7 0.4,-1.5 1,-2.9 1.5,-4.3 0.1,-0.4 0.3,-0.7 0.4,-1.1 -2.7,3.6 -5.5,7 -7.2,11.2 -2.3,0.1 -3.7,-1.1 -3.4,-3.3 0.2,-1.4 0.8,-2.8 1.2,-4.2 0.1,-0.4 0.3,-0.7 0.2,-1.2 -1.4,2 -2.8,4.1 -4.2,6.1 -0.8,1.3 -1.5,2.6 -2.3,3.9 -0.2,0.3 -0.6,0.5 -0.9,0.5 -1.7,-0.1 -2.9,-1.3 -2.8,-3 0,-0.5 0.1,-0.9 0.2,-1.6 -0.9,1.2 -1.6,2.2 -2.5,3.2 -1.6,1.8 -3.4,3.5 -5.8,4.1 0.6,0 0.4,0.1 0.2,0.1 -3,0.6 -4.6,-0.7 -4.8,-3.7 0,-0.8 0,-1.6 0,-2.5 -1.3,1.8 -2.5,3.5 -3.8,5.2 -0.8,1.1 -1.8,2.1 -2.8,2.9 -1.9,1.6 -3.4,1.1 -3.9,-1.4 -0.1,-0.3 -0.1,-0.7 -0.2,-1.2 -0.9,1.1 -1.7,2.1 -2.5,3 -0.4,0.4 -0.7,0.8 -1.1,1.2 -1,1 -2.1,1.5 -3.5,1 -1.4,-0.6 -1.9,-1.7 -1.9,-3.2 0,-0.1 0,-0.2 -0.1,-0.5 -1,1.2 -1.9,2.4 -2.9,3.5 -0.5,0.6 -1.1,1.2 -1.8,1.7 -1.6,1.2 -2.9,0.8 -3.5,-1.2 -0.1,-0.4 -0.2,-0.9 -0.3,-1.4 -0.1,-0.1 -0.3,-0.3 -0.4,-0.4 -0.1,0.3 -0.2,0.7 -0.4,0.9 -1.1,1.2 -2.1,2.5 -3.2,3.6 -0.9,1 -2.1,1.2 -3.3,0.7 -1.2,-0.5 -1.9,-1.6 -1.8,-2.9 0.1,-1.4 0.5,-2.7 0.7,-4.2 -0.9,1.3 -1.7,2.6 -2.7,3.8 -1.3,1.6 -2.7,3.2 -4.3,4.4 -1.2,0.9 -2.8,1.5 -4.3,2 -1.6,0.5 -3,-0.5 -3.3,-2.1 -0.2,-1.4 -0.3,-2.8 0,-4.1 0.9,-4.4 2.8,-8.4 6.2,-11.5 1.7,-1.5 3.1,-1.6 5.2,-0.6 0.1,-0.5 0.2,-1 0.3,-1.5 1.4,0.1 2.1,0.8 1.9,2 -0.4,2.5 -1.9,4.3 -4,5.5 C 46,94.2 45.6,94.1 45,94.2 45.7,93 46.2,92 46.7,91.1 46.6,91 46.6,91 46.5,90.9 c -0.3,0.3 -0.6,0.7 -0.9,1 -2,2.7 -3.4,5.7 -4.3,9 -0.2,0.8 -0.6,2 0.4,2.4 0.6,0.2 1.7,-0.2 2.4,-0.7 2.6,-2 4.1,-4.8 5.9,-7.4 0.4,-0.5 0.6,-1.2 1,-1.5 2.5,-2.1 3.4,-5.3 5.6,-7.6 0.4,-0.4 0.8,-0.8 1.3,-1.2 1.7,-1.2 3.4,-1.1 4.7,0.5 0.5,0.5 0.8,0.9 1,1.2 -1.2,-0.3 -1.9,0.6 -2.5,1.3 -2.7,3.2 -4.7,6.8 -6,10.8 -0.1,0.4 -0.1,0.8 -0.1,1.5 0.6,-0.5 0.9,-0.7 1.1,-1 2.5,-4.1 5,-8.4 7.5,-12.6 z m 35.3,-7.8 c -1.6,0.3 -4.5,5.1 -4.8,7.8 1.9,0.1 5.3,-5.4 4.8,-7.8 z m 34.3,14.3 c 0.4,0.1 0.9,0.3 1.2,0.2 1.5,-0.8 2,-2.3 2.2,-4 -1,1.2 -2.1,2.4 -3.4,3.8 z"
         id="path1726" />
      <path
         style="fill:#ffffff;fill-opacity:1"
         inkscape:connector-curvature="0"
         class="st0"
         d="m 94.3,32.4 c 1,-1.9 2,-3.7 3.1,-5.6 1.4,-2.5 2.9,-5.1 4.3,-7.6 0.4,-0.8 0.8,-0.9 1.6,-0.5 1,0.5 1.4,1.4 1.3,2.4 -0.1,0.9 -0.4,1.7 -0.8,2.5 -2.6,4.8 -5.4,9.5 -8,14.3 -0.9,1.6 -1.4,3.4 -2.1,5.2 -0.1,0.3 0,0.7 0,1.4 0.6,-0.4 1,-0.6 1.3,-0.9 2.6,-3.1 5.1,-6.2 6.8,-9.9 1.2,-2.6 2.7,-5 5,-6.8 2,-1.6 4.2,-1.4 5.8,0.2 0.9,0.9 0.7,1.9 0.4,2.9 -0.8,2.6 -2,5 -3.8,7 -1.2,1.4 -1.7,1.5 -3.8,1.2 -0.1,0.7 -0.4,1.4 -0.4,2.1 0,1.3 0.8,1.9 2,1.3 0.8,-0.4 1.5,-0.8 2.1,-1.4 3.9,-4.2 7.1,-8.8 9.1,-14.1 0.3,-0.8 0.5,-1.6 0.7,-2.4 1.1,-0.1 2.2,0.1 3,1.1 0.7,0.9 0.3,1.8 -0.2,2.6 -0.5,1 -1.1,2.1 -1.5,3.2 1.5,-1.8 2.9,-3.6 4.4,-5.4 0.9,-1.1 1.9,-2.1 3,-3.1 1,-0.9 2.5,-0.8 3.7,0.2 1.1,0.9 1.3,1.9 0.5,3.2 -1.8,3.2 -3.6,6.4 -5.4,9.7 -0.5,0.9 -0.7,1.8 -1.1,2.7 0.1,0.1 0.2,0.1 0.3,0.2 0.4,-0.4 1,-0.7 1.3,-1.2 2.3,-3 4.5,-6.1 6.7,-9.1 0.4,-0.6 0.8,-1.7 1.7,-1.2 0.9,0.6 0,1.4 -0.4,1.9 -2,2.9 -4,5.9 -6.2,8.6 -1,1.2 -2.5,2.1 -3.9,3 -0.9,0.5 -2,0.7 -3,-0.1 -0.9,-0.8 -0.9,-1.9 -0.5,-2.8 0.8,-2.2 1.6,-4.4 2.7,-6.5 1,-2 2.2,-3.8 3.3,-5.8 -0.4,0.4 -0.9,0.8 -1.3,1.2 -3.8,4.2 -7.4,8.7 -10.4,13.5 -0.4,0.7 -0.8,1.3 -1.1,2 -0.4,1 -1,0.9 -1.6,0.4 -0.5,-0.5 -0.9,-1.2 -1.4,-1.9 -0.5,0.5 -0.9,1.1 -1.5,1.6 -1.6,1.5 -3.3,2.6 -5.5,2.9 -2.7,0.3 -4.1,-0.9 -4.3,-3.6 0,-0.4 0,-0.8 0,-1.5 -1.3,1.7 -2.5,3.3 -3.7,4.8 -0.7,0.8 -1.4,1.5 -2.3,2.2 -1.7,1.3 -3.1,0.8 -3.6,-1.3 -0.1,-0.4 -0.1,-0.8 -0.2,-1.4 -0.9,1 -1.6,1.9 -2.3,2.8 -0.4,0.5 -0.8,0.9 -1.3,1.4 -2.1,2.3 -4.6,1.1 -5.4,-1.1 -1.8,1.9 -3.5,3.8 -5.3,5.7 -1,1 -1.6,2.2 -2.3,3.4 -0.9,1.6 -1.9,3.2 -3.1,4.6 -2.1,2.2 -4.3,1.9 -6.1,-0.8 1,-0.9 2,-2 3.1,-2.8 2.8,-2 4.4,-4.7 5.3,-8 0.8,-2.9 2.1,-5.7 3,-8.7 -0.6,0.9 -1.2,1.8 -1.9,2.6 -2.5,3.2 -5,6.3 -7.5,9.5 -0.3,0.4 -0.8,0.8 -1.3,1 -1.3,0.7 -2.9,-0.1 -2.9,-1.5 0,-1.2 0.2,-2.4 0.7,-3.5 1.3,-2.9 2.7,-5.7 4.1,-8.5 0.8,-1.6 1.5,-3.3 2.3,-5.2 1,0 2.2,0.5 3,1.5 0.8,1 0.4,2 -0.2,2.9 -1.6,3 -3.2,6 -4.8,9 -0.1,0.2 -0.1,0.3 0,0.7 0.4,-0.4 0.8,-0.7 1.1,-1.1 C 72.3,43 76,38.2 79,32.9 c 0.1,-0.2 0.5,-0.5 0.8,-0.5 2.5,0.1 3.8,2.1 2.7,4.3 -2.1,4.3 -4.1,8.6 -6.2,12.9 -0.1,0.3 -0.2,0.5 -0.2,0.9 2.2,-2.8 5,-5.2 6.3,-8.8 1,-2.9 2.5,-5.6 3.9,-8.3 0.1,-0.3 0.4,-0.6 0.6,-0.8 2.1,-3 4.8,-4 7.4,-0.2 -0.9,-0.4 -1.5,0 -2,0.6 -3.2,3.3 -5.2,7.2 -6.6,11.5 -0.1,0.3 0,0.7 0,1.1 0.6,-0.3 1,-0.6 1.3,-1 1,-1.6 2.1,-3.3 3.1,-4.9 1.3,-2.5 2.7,-4.9 4.2,-7.3 z m 11.8,3.8 c 1.8,0.3 5.1,-4.9 4.9,-7.7 -1.6,0.1 -4.4,4.6 -4.9,7.7 z M 66.3,59.7 c 0,0.1 0,0.2 0,0.3 0.5,0.1 1.1,0.3 1.4,0.1 1.5,-0.8 1.9,-2.4 2.2,-4 -1.1,1.2 -2.4,2.4 -3.6,3.6 z"
         id="path1728" />
      <path
         style="fill:#ffffff;fill-opacity:1"
         inkscape:connector-curvature="0"
         class="st0"
         d="m 55.1,65.3 c -2.2,0.5 -5.5,-1.9 -4.6,-5.8 0.8,-3.5 2.1,-7 3.3,-10.4 0.8,-2.4 1.9,-4.8 2.9,-7.5 -2,0.6 -3.8,1.1 -5.5,1.6 -0.3,0.1 -0.5,0.5 -0.6,0.8 -2.3,5.7 -4.6,11.4 -6.8,17.2 0,0.1 -0.1,0.2 -0.2,0.4 -2.3,-0.3 -4.2,-1.4 -5.4,-3.4 -0.2,-0.4 -0.2,-1.2 0,-1.7 1.7,-3.2 3.4,-6.4 5.2,-9.6 0.2,-0.3 0.3,-0.7 0.6,-1.2 -1.5,0.4 -2.8,0.9 -4.1,1.2 -3.5,0.8 -5.5,-0.8 -5.4,-4.5 3.9,1.6 7.6,-0.1 11.3,-1 0.3,-0.1 0.6,-0.4 0.7,-0.7 2.9,-6.6 5.8,-13.3 8.7,-19.9 0,-0.1 0,-0.2 0,-0.4 -1,0.3 -1.9,0.5 -2.8,0.9 -5.9,2.5 -10.7,6.3 -14.2,11.6 -1,1.5 -1.7,3 -1.6,5.1 -0.9,-0.1 -1.8,0 -2.6,-0.3 -2.1,-0.5 -2.8,-1.8 -2.2,-3.9 1,-3.2 3,-5.8 5.3,-8.1 4.5,-4.5 10,-7.3 16.1,-8.8 3,-0.7 6,1.1 6.2,3.9 0.1,0.9 -0.1,2 -0.4,2.8 -1.9,4.9 -4,9.9 -6,14.8 -0.1,0.4 -0.3,0.7 -0.6,1.3 1.5,-0.3 2.8,-0.6 4.1,-0.8 1,-0.1 1.5,-0.6 1.9,-1.5 3.5,-7.7 7,-15.4 10.5,-23.1 0.4,-1 1.1,-1.1 1.9,-0.9 0.6,0.2 1.2,0.4 1.7,0.8 2,1.4 2.1,1.8 0.8,3.8 -3.5,5.4 -6.1,11.3 -8.6,17.3 -3.3,7.8 -6.3,15.6 -8.4,23.8 -0.5,1.8 -0.8,3.9 -1.2,6.2 z"
         id="path1730" />
      <path
         style="fill:#ffffff;fill-opacity:1"
         inkscape:connector-curvature="0"
         class="st0"
         d="m 29.4,117.2 c -2.9,0.3 -5.4,-2.2 -4.9,-5.4 0.4,-2.3 1.2,-4.5 1.8,-6.7 0.4,-1.4 1,-2.8 1.5,-4.3 0.5,-1.4 1.1,-2.8 1.8,-4.6 -2.5,1.2 -5.3,0.9 -7.1,3.3 -3.8,5.1 -7.9,10.1 -12.8,14.3 -1.4,1.2 -3.1,2.2 -4.8,2.9 -2.1,0.8 -3.9,-0.5 -4.3,-2.7 5.5,-2 9.2,-6.3 13.2,-10.2 0.9,-0.9 1.7,-1.8 2.5,-3 -0.9,0.3 -1.8,0.7 -2.8,1 -0.9,0.3 -1.8,0.6 -2.8,0.9 -3,0.7 -5.1,-1.3 -4.9,-4.5 3.1,1.2 6.1,0.1 9.1,-0.7 0.8,-0.2 1.6,-0.6 2.4,-0.8 3,-0.4 4.9,-2.2 6.7,-4.5 6.5,-8.1 12.6,-16.4 18.2,-25 0.1,-0.2 0.3,-0.5 0.4,-0.7 0.8,-1.5 1.3,-1.7 2.9,-1.1 0.5,0.2 0.9,0.5 1.3,0.7 1.8,1.3 1.9,1.6 0.7,3.4 -3.6,5.6 -6.3,11.6 -8.8,17.7 -3.2,7.6 -6.2,15.3 -8.3,23.3 -0.3,2.3 -0.6,4.4 -1,6.7 z M 26.8,94.1 c 1.2,-0.2 2.1,-0.4 3,-0.6 0.7,-0.1 1.1,-0.4 1.3,-1.1 1.3,-3.2 2.7,-6.4 4.1,-9.6 0.1,-0.3 0.3,-0.7 0.4,-1 -0.1,0 -0.1,-0.1 -0.2,-0.1 -2.7,4.1 -5.6,8.2 -8.6,12.4 z"
         id="path1732" />
      <path
         style="fill:#ffffff;fill-opacity:1"
         inkscape:connector-curvature="0"
         class="st0"
         d="m 46.1,105.7 c 1.1,-1.2 2.1,-2.3 3.3,-3.6 12.3,9.5 26.2,13.6 41.6,11.5 15.5,-2 27.7,-9.8 37.2,-22.1 1,1.3 2,2.6 3,4 -17.9,25.7 -58.4,32.7 -85.1,10.2 z"
         id="path1734" />
      <path
         style="fill:#ffffff;fill-opacity:1"
         inkscape:connector-curvature="0"
         class="st0"
         d="m 128.2,19.9 c -1.4,1 -2.7,2 -4,3 -1.5,-1.4 -3,-2.8 -4.6,-4.2 C 111.6,11.8 102.4,7.4 92,5.9 77.7,3.9 64.6,6.9 52.6,15 c -0.5,0.4 -1.2,0.6 -1.8,0.9 -2.8,1.2 -5.6,2.2 -8.3,3.6 -1.7,0.8 -3.1,2.1 -4.9,3.1 0.3,-0.5 0.6,-1.1 1,-1.5 7.2,-8.2 15.8,-14.3 26.2,-17.7 7.8,-2.8 15.9,-3.8 24.2,-3 13.2,1.1 24.8,6.3 34.7,15 1.5,1.4 3,3 4.5,4.5 z"
         id="path1736" />
      <path
         style="fill:#ffffff;fill-opacity:1"
         inkscape:connector-curvature="0"
         class="st0"
         d="m 74.6,57.3 c 0.3,-0.8 0.5,-1.1 0.6,-1.5 0.4,-1.2 1.2,-1.9 2.4,-2.2 3.5,-0.7 7,-1.5 10.6,-2.3 4.1,-0.9 8.2,-1.7 12.3,-2.6 6.6,-1.5 13.2,-3 19.9,-4.4 7.3,-1.6 14.7,-3.1 22.1,-4.7 2.9,-0.6 5.8,-1.3 8.8,-1.8 2.8,-0.5 5.7,-0.9 8.6,-1.1 1.7,-0.1 3.4,0.3 4.9,0.5 -2.2,0.6 -4.6,1.4 -7.1,1.9 -6.3,1.4 -12.7,2.7 -19,4 -8.4,1.8 -16.8,3.7 -25.2,5.5 -6.3,1.3 -12.7,2.5 -19,3.9 -5.1,1.1 -10.2,2.4 -15.3,3.6 -1.6,0.5 -3,0.8 -4.6,1.2 z"
         id="path1738" />
      <path
         style="fill:#ffffff;fill-opacity:1"
         inkscape:connector-curvature="0"
         class="st0"
         d="m 29,36.3 c 1.4,1.1 2.6,2.1 3.9,3.2 -0.8,2.6 -1.7,5.3 -2.3,8.1 -2.3,10 -1.8,19.8 1.5,29.5 0.4,1.1 0.3,1.9 -0.5,2.8 -0.9,1 -1.6,2.1 -2.5,3.3 C 25.8,75.6 24.3,67.8 24.3,59.7 24.2,51.6 25.8,43.9 29,36.3 Z"
         id="path1740" />
      <path
         style="fill:#ffffff;fill-opacity:1"
         inkscape:connector-curvature="0"
         class="st0"
         d="m 136.6,45.4 c 1.6,-0.3 3.1,-0.6 4.7,-1 1.2,4.1 1.9,8.1 2,12.2 0,3.6 -0.2,7.1 -0.5,10.7 -0.1,0.8 -0.6,1.5 -0.9,2.4 -1.4,-1.2 -2.5,-2.1 -3.6,-3.1 -0.2,-0.2 -0.3,-0.6 -0.2,-0.8 0.5,-6.7 0.1,-13.3 -1.4,-19.9 -0.1,-0.2 -0.1,-0.2 -0.1,-0.5 z"
         id="path1742" />
      <path
         style="fill:#ffffff;fill-opacity:1"
         inkscape:connector-curvature="0"
         class="st0"
         d="m 139.7,38.7 c -1.8,0.4 -3.2,0.8 -4.6,1.1 -0.2,0 -0.6,-0.2 -0.8,-0.5 -0.6,-1.2 -1.1,-2.5 -1.6,-3.7 -0.1,-0.2 -0.1,-0.6 0,-0.9 0.8,-1.4 1.7,-2.8 2.8,-4.6 1.5,2.9 2.8,5.6 4.2,8.6 z"
         id="path1744" />
    </g>
    <text
       xml:space="preserve"
       style="font-style:normal;font-variant:normal;font-weight:400;font-size:5.63893223px;line-height:125%;font-family:Calibri;text-align:start;letter-spacing:0px;word-spacing:0px;text-anchor:start;fill:#1a1a1a;fill-opacity:1;stroke:none;stroke-width:0.26458332"
       x="76.9058"
       y="135.57133"
       id="text1754"><tspan
         style="fill:#1a1a1a;stroke-width:0.26458332"
         sodipodi:role="line"
         x="76.9058"
         y="135.57133"
         id="tspan1752"><tspan
           dx="0"
           dy="0"
           style="font-style:normal;font-variant:normal;font-weight:400;font-size:5.63893223px;font-family:Calibri;fill:#1a1a1a;stroke-width:0.26458332"
           id="tspan1750"> </tspan></tspan></text>
  </g>
</svg>
