<?xml version="1.0" encoding="UTF-8"?>
<!-- Created with Inkscape (http://www.inkscape.org/) -->
<svg width="91.34mm" height="66.257mm" version="1.1" viewBox="0 0 91.34 66.257" xmlns="http://www.w3.org/2000/svg" xmlns:cc="http://creativecommons.org/ns#" xmlns:dc="http://purl.org/dc/elements/1.1/" xmlns:rdf="http://www.w3.org/1999/02/22-rdf-syntax-ns#">
 <metadata>
  <rdf:RDF>
   <cc:Work rdf:about="">
    <dc:format>image/svg+xml</dc:format>
    <dc:type rdf:resource="http://purl.org/dc/dcmitype/StillImage"/>
    <dc:title/>
   </cc:Work>
  </rdf:RDF>
 </metadata>
 <g transform="translate(-33.705 -80.931)">
  <g transform="translate(507.83 45.338)">
   <rect x="-452.81" y="48.257" width="47.438" height="47.438" fill="#fef966"/>
   <g transform="matrix(.55627 0 0 .55627 -474.46 35.519)" fill="#1a1a1a">
    <path class="st0" d="m63.6 86.6c0.6-1 1.2-1.9 1.7-2.9 0.4-0.7 0.8-0.7 1.4-0.4 1.7 0.8 2.2 2.2 1.3 3.8-1.5 2.7-2.9 5.5-4.3 8.3-0.5 1-0.6 2.2-0.8 3.3 0.1 0.1 0.3 0.1 0.4 0.2 0.4-0.3 0.9-0.6 1.2-1 2.5-2.9 4.8-5.8 6.2-9.3 1-2.5 2.3-4.9 4.4-6.8s4.3-1.5 5.7 0.7c-1 0.9-2.1 1.7-2.9 2.7-2.2 2.8-3.8 5.9-4.9 9.2-0.2 0.5-0.3 1.1-0.4 1.7 0.1 0.1 0.2 0.2 0.3 0.2 0.4-0.4 0.8-0.8 1.1-1.2 2.4-3.9 4.8-7.8 7.1-11.8 2.6-4.5 5.1-9 7.7-13.5 0.3-0.6 0.7-0.7 1.3-0.4 1.3 0.6 1.9 2 1.3 3.6-0.3 1-0.9 1.9-1.4 2.8-2.7 4.9-5.4 9.7-8 14.6-0.6 1.1-0.9 2.3-1.3 3.5-0.1 0.3 0 0.7-0.1 1.5 0.7-0.5 1.1-0.7 1.4-1 1.9-2.5 3.8-5 5.6-7.6 1.5-2.1 2.7-4.4 4.3-6.4 1-1.3 2.4-2.5 3.8-3.5 0.7-0.5 1.9-0.5 2.8-0.3 1.9 0.4 2.7 1.9 2.2 3.8-0.7 2.7-2 5-3.7 7.2-1 1.2-2.2 1.9-3.7 1.2-0.1 0.2-0.2 0.2-0.3 0.3-0.3 1.1-0.9 2.3 0.2 3.1 1.2 0.8 2.3-0.1 3-1 1.9-2.2 3.7-4.6 5.5-6.9 0.7-0.9 1.1-2.2 2-2.8 1.8-1.4 2.4-3.4 3.4-5.2 0.4-0.7 0.5-1.4 0.8-2.2 1.2-0.1 2.2 0.4 3 1.2s0.7 1.7 0.2 2.7c-1.4 2.6-2.8 5.3-4.2 7.9-0.2 0.5-0.5 1-0.5 1.6 1.5-2.2 3.1-4.4 4.5-6.7 1.7-2.7 3.4-5.5 5.1-8.2 0.1-0.2 0.5-0.4 0.7-0.4 1.3 0.1 2.4 0.6 3.1 1.7 0.5 0.8 0.3 1.5-0.1 2.3-1.3 2.3-2.6 4.7-3.8 7.1-0.3 0.5-0.5 1.1-0.6 1.8 1-1.4 2-2.9 2.9-4.3 2.2-3.3 4.3-6.6 6.5-9.9 0.1-0.2 0.4-0.6 0.5-0.5 1 0.4 2.1 0.7 3 1.4 0.8 0.6 0.7 1.6 0.2 2.6-1.7 3.3-3.4 6.7-5.1 10.1-0.3 0.5-0.3 1.2-0.4 1.7 0.1 0.1 0.2 0.2 0.3 0.2 0.5-0.4 1.1-0.7 1.5-1.2 2.1-2.8 4.2-5.7 6.3-8.5 1.1-1.5 2.1-3 3-4.6 0.7-1.2 1.1-2.5 1.6-4 1.2-0.1 2.2 0.5 3.1 1.5 0.7 0.8 0.5 1.7 0.1 2.6-1.2 2.2-2.5 4.5-3.7 6.7-0.5 1-1 2.1-1.5 3.1 0.1 0.1 0.2 0.1 0.3 0.2 0.5-0.5 1.1-1 1.5-1.6 3.4-4.7 6.7-9.5 10-14.3 0.2-0.2 0.5-0.5 0.8-0.4 2.5 0.1 3.7 2.2 2.6 4.4-2 4.3-4.1 8.5-6.2 12.8-0.1 0.3-0.2 0.5-0.4 0.8 0.1 0.1 0.2 0.1 0.2 0.2 1.6-2 3.2-3.9 4.7-5.9s2.9-4.1 4.3-6.1c0.2-0.3 0.3-0.6 0.5-0.8 0.4-0.3 0.9-0.4 1.3-0.7 0 0.5 0.1 1.1-0.1 1.4-1.5 2.3-3 4.6-4.7 6.8-2.1 2.6-4.4 5-6.6 7.5-0.6 0.7-1.1 1.5-1.6 2.3-1.2 1.8-2.3 3.8-3.7 5.4-2 2.2-4.4 1.7-5.9-0.9 2-1.8 4-3.5 5.9-5.4 0.5-0.5 1-1.1 1.2-1.8 1.5-3.9 2.9-7.8 4.3-11.7 0.1-0.1 0.1-0.3-0.1-0.5-1.5 2-2.9 4.1-4.5 6.1-1.5 2-3.2 3.9-4.8 5.8-0.3 0.3-0.6 0.6-1 0.8-1.5 1-3.2 0.3-3.3-1.5 0-0.8 0.2-1.7 0.3-2.7-0.5 0.7-0.9 1.4-1.5 1.9-1 1.1-2.1 2.2-3.2 3.3-0.3 0.3-0.6 0.5-1 0.6-1.2 0.6-2.6 1.2-3.9 0.3s-1.1-2.4-0.8-3.7c0.4-1.5 1-2.9 1.5-4.3 0.1-0.4 0.3-0.7 0.4-1.1-2.7 3.6-5.5 7-7.2 11.2-2.3 0.1-3.7-1.1-3.4-3.3 0.2-1.4 0.8-2.8 1.2-4.2 0.1-0.4 0.3-0.7 0.2-1.2-1.4 2-2.8 4.1-4.2 6.1-0.8 1.3-1.5 2.6-2.3 3.9-0.2 0.3-0.6 0.5-0.9 0.5-1.7-0.1-2.9-1.3-2.8-3 0-0.5 0.1-0.9 0.2-1.6-0.9 1.2-1.6 2.2-2.5 3.2-1.6 1.8-3.4 3.5-5.8 4.1 0.6 0 0.4 0.1 0.2 0.1-3 0.6-4.6-0.7-4.8-3.7v-2.5c-1.3 1.8-2.5 3.5-3.8 5.2-0.8 1.1-1.8 2.1-2.8 2.9-1.9 1.6-3.4 1.1-3.9-1.4-0.1-0.3-0.1-0.7-0.2-1.2-0.9 1.1-1.7 2.1-2.5 3-0.4 0.4-0.7 0.8-1.1 1.2-1 1-2.1 1.5-3.5 1-1.4-0.6-1.9-1.7-1.9-3.2 0-0.1 0-0.2-0.1-0.5-1 1.2-1.9 2.4-2.9 3.5-0.5 0.6-1.1 1.2-1.8 1.7-1.6 1.2-2.9 0.8-3.5-1.2-0.1-0.4-0.2-0.9-0.3-1.4l-0.4-0.4c-0.1 0.3-0.2 0.7-0.4 0.9-1.1 1.2-2.1 2.5-3.2 3.6-0.9 1-2.1 1.2-3.3 0.7s-1.9-1.6-1.8-2.9c0.1-1.4 0.5-2.7 0.7-4.2-0.9 1.3-1.7 2.6-2.7 3.8-1.3 1.6-2.7 3.2-4.3 4.4-1.2 0.9-2.8 1.5-4.3 2-1.6 0.5-3-0.5-3.3-2.1-0.2-1.4-0.3-2.8 0-4.1 0.9-4.4 2.8-8.4 6.2-11.5 1.7-1.5 3.1-1.6 5.2-0.6l0.3-1.5c1.4 0.1 2.1 0.8 1.9 2-0.4 2.5-1.9 4.3-4 5.5-0.3 0.2-0.7 0.1-1.3 0.2 0.7-1.2 1.2-2.2 1.7-3.1l-0.2-0.2c-0.3 0.3-0.6 0.7-0.9 1-2 2.7-3.4 5.7-4.3 9-0.2 0.8-0.6 2 0.4 2.4 0.6 0.2 1.7-0.2 2.4-0.7 2.6-2 4.1-4.8 5.9-7.4 0.4-0.5 0.6-1.2 1-1.5 2.5-2.1 3.4-5.3 5.6-7.6 0.4-0.4 0.8-0.8 1.3-1.2 1.7-1.2 3.4-1.1 4.7 0.5 0.5 0.5 0.8 0.9 1 1.2-1.2-0.3-1.9 0.6-2.5 1.3-2.7 3.2-4.7 6.8-6 10.8-0.1 0.4-0.1 0.8-0.1 1.5 0.6-0.5 0.9-0.7 1.1-1 2.5-4.1 5-8.4 7.5-12.6zm35.3-7.8c-1.6 0.3-4.5 5.1-4.8 7.8 1.9 0.1 5.3-5.4 4.8-7.8zm34.3 14.3c0.4 0.1 0.9 0.3 1.2 0.2 1.5-0.8 2-2.3 2.2-4-1 1.2-2.1 2.4-3.4 3.8z"/>
    <path class="st0" d="m94.3 32.4c1-1.9 2-3.7 3.1-5.6 1.4-2.5 2.9-5.1 4.3-7.6 0.4-0.8 0.8-0.9 1.6-0.5 1 0.5 1.4 1.4 1.3 2.4-0.1 0.9-0.4 1.7-0.8 2.5-2.6 4.8-5.4 9.5-8 14.3-0.9 1.6-1.4 3.4-2.1 5.2-0.1 0.3 0 0.7 0 1.4 0.6-0.4 1-0.6 1.3-0.9 2.6-3.1 5.1-6.2 6.8-9.9 1.2-2.6 2.7-5 5-6.8 2-1.6 4.2-1.4 5.8 0.2 0.9 0.9 0.7 1.9 0.4 2.9-0.8 2.6-2 5-3.8 7-1.2 1.4-1.7 1.5-3.8 1.2-0.1 0.7-0.4 1.4-0.4 2.1 0 1.3 0.8 1.9 2 1.3 0.8-0.4 1.5-0.8 2.1-1.4 3.9-4.2 7.1-8.8 9.1-14.1 0.3-0.8 0.5-1.6 0.7-2.4 1.1-0.1 2.2 0.1 3 1.1 0.7 0.9 0.3 1.8-0.2 2.6-0.5 1-1.1 2.1-1.5 3.2 1.5-1.8 2.9-3.6 4.4-5.4 0.9-1.1 1.9-2.1 3-3.1 1-0.9 2.5-0.8 3.7 0.2 1.1 0.9 1.3 1.9 0.5 3.2-1.8 3.2-3.6 6.4-5.4 9.7-0.5 0.9-0.7 1.8-1.1 2.7 0.1 0.1 0.2 0.1 0.3 0.2 0.4-0.4 1-0.7 1.3-1.2 2.3-3 4.5-6.1 6.7-9.1 0.4-0.6 0.8-1.7 1.7-1.2 0.9 0.6 0 1.4-0.4 1.9-2 2.9-4 5.9-6.2 8.6-1 1.2-2.5 2.1-3.9 3-0.9 0.5-2 0.7-3-0.1-0.9-0.8-0.9-1.9-0.5-2.8 0.8-2.2 1.6-4.4 2.7-6.5 1-2 2.2-3.8 3.3-5.8-0.4 0.4-0.9 0.8-1.3 1.2-3.8 4.2-7.4 8.7-10.4 13.5-0.4 0.7-0.8 1.3-1.1 2-0.4 1-1 0.9-1.6 0.4-0.5-0.5-0.9-1.2-1.4-1.9-0.5 0.5-0.9 1.1-1.5 1.6-1.6 1.5-3.3 2.6-5.5 2.9-2.7 0.3-4.1-0.9-4.3-3.6v-1.5c-1.3 1.7-2.5 3.3-3.7 4.8-0.7 0.8-1.4 1.5-2.3 2.2-1.7 1.3-3.1 0.8-3.6-1.3-0.1-0.4-0.1-0.8-0.2-1.4-0.9 1-1.6 1.9-2.3 2.8-0.4 0.5-0.8 0.9-1.3 1.4-2.1 2.3-4.6 1.1-5.4-1.1-1.8 1.9-3.5 3.8-5.3 5.7-1 1-1.6 2.2-2.3 3.4-0.9 1.6-1.9 3.2-3.1 4.6-2.1 2.2-4.3 1.9-6.1-0.8 1-0.9 2-2 3.1-2.8 2.8-2 4.4-4.7 5.3-8 0.8-2.9 2.1-5.7 3-8.7-0.6 0.9-1.2 1.8-1.9 2.6-2.5 3.2-5 6.3-7.5 9.5-0.3 0.4-0.8 0.8-1.3 1-1.3 0.7-2.9-0.1-2.9-1.5 0-1.2 0.2-2.4 0.7-3.5 1.3-2.9 2.7-5.7 4.1-8.5 0.8-1.6 1.5-3.3 2.3-5.2 1 0 2.2 0.5 3 1.5s0.4 2-0.2 2.9l-4.8 9c-0.1 0.2-0.1 0.3 0 0.7 0.4-0.4 0.8-0.7 1.1-1.1 3.7-4.7 7.4-9.5 10.4-14.8 0.1-0.2 0.5-0.5 0.8-0.5 2.5 0.1 3.8 2.1 2.7 4.3-2.1 4.3-4.1 8.6-6.2 12.9-0.1 0.3-0.2 0.5-0.2 0.9 2.2-2.8 5-5.2 6.3-8.8 1-2.9 2.5-5.6 3.9-8.3 0.1-0.3 0.4-0.6 0.6-0.8 2.1-3 4.8-4 7.4-0.2-0.9-0.4-1.5 0-2 0.6-3.2 3.3-5.2 7.2-6.6 11.5-0.1 0.3 0 0.7 0 1.1 0.6-0.3 1-0.6 1.3-1 1-1.6 2.1-3.3 3.1-4.9 1.3-2.5 2.7-4.9 4.2-7.3zm11.8 3.8c1.8 0.3 5.1-4.9 4.9-7.7-1.6 0.1-4.4 4.6-4.9 7.7zm-39.8 23.5v0.3c0.5 0.1 1.1 0.3 1.4 0.1 1.5-0.8 1.9-2.4 2.2-4-1.1 1.2-2.4 2.4-3.6 3.6z"/>
    <path class="st0" d="m55.1 65.3c-2.2 0.5-5.5-1.9-4.6-5.8 0.8-3.5 2.1-7 3.3-10.4 0.8-2.4 1.9-4.8 2.9-7.5-2 0.6-3.8 1.1-5.5 1.6-0.3 0.1-0.5 0.5-0.6 0.8-2.3 5.7-4.6 11.4-6.8 17.2 0 0.1-0.1 0.2-0.2 0.4-2.3-0.3-4.2-1.4-5.4-3.4-0.2-0.4-0.2-1.2 0-1.7 1.7-3.2 3.4-6.4 5.2-9.6 0.2-0.3 0.3-0.7 0.6-1.2-1.5 0.4-2.8 0.9-4.1 1.2-3.5 0.8-5.5-0.8-5.4-4.5 3.9 1.6 7.6-0.1 11.3-1 0.3-0.1 0.6-0.4 0.7-0.7 2.9-6.6 5.8-13.3 8.7-19.9v-0.4c-1 0.3-1.9 0.5-2.8 0.9-5.9 2.5-10.7 6.3-14.2 11.6-1 1.5-1.7 3-1.6 5.1-0.9-0.1-1.8 0-2.6-0.3-2.1-0.5-2.8-1.8-2.2-3.9 1-3.2 3-5.8 5.3-8.1 4.5-4.5 10-7.3 16.1-8.8 3-0.7 6 1.1 6.2 3.9 0.1 0.9-0.1 2-0.4 2.8-1.9 4.9-4 9.9-6 14.8-0.1 0.4-0.3 0.7-0.6 1.3 1.5-0.3 2.8-0.6 4.1-0.8 1-0.1 1.5-0.6 1.9-1.5l10.5-23.1c0.4-1 1.1-1.1 1.9-0.9 0.6 0.2 1.2 0.4 1.7 0.8 2 1.4 2.1 1.8 0.8 3.8-3.5 5.4-6.1 11.3-8.6 17.3-3.3 7.8-6.3 15.6-8.4 23.8-0.5 1.8-0.8 3.9-1.2 6.2z"/>
    <path class="st0" d="m29.4 117.2c-2.9 0.3-5.4-2.2-4.9-5.4 0.4-2.3 1.2-4.5 1.8-6.7 0.4-1.4 1-2.8 1.5-4.3 0.5-1.4 1.1-2.8 1.8-4.6-2.5 1.2-5.3 0.9-7.1 3.3-3.8 5.1-7.9 10.1-12.8 14.3-1.4 1.2-3.1 2.2-4.8 2.9-2.1 0.8-3.9-0.5-4.3-2.7 5.5-2 9.2-6.3 13.2-10.2 0.9-0.9 1.7-1.8 2.5-3-0.9 0.3-1.8 0.7-2.8 1-0.9 0.3-1.8 0.6-2.8 0.9-3 0.7-5.1-1.3-4.9-4.5 3.1 1.2 6.1 0.1 9.1-0.7 0.8-0.2 1.6-0.6 2.4-0.8 3-0.4 4.9-2.2 6.7-4.5 6.5-8.1 12.6-16.4 18.2-25 0.1-0.2 0.3-0.5 0.4-0.7 0.8-1.5 1.3-1.7 2.9-1.1 0.5 0.2 0.9 0.5 1.3 0.7 1.8 1.3 1.9 1.6 0.7 3.4-3.6 5.6-6.3 11.6-8.8 17.7-3.2 7.6-6.2 15.3-8.3 23.3-0.3 2.3-0.6 4.4-1 6.7zm-2.6-23.1c1.2-0.2 2.1-0.4 3-0.6 0.7-0.1 1.1-0.4 1.3-1.1 1.3-3.2 2.7-6.4 4.1-9.6 0.1-0.3 0.3-0.7 0.4-1-0.1 0-0.1-0.1-0.2-0.1-2.7 4.1-5.6 8.2-8.6 12.4z"/>
    <path class="st0" d="m46.1 105.7c1.1-1.2 2.1-2.3 3.3-3.6 12.3 9.5 26.2 13.6 41.6 11.5 15.5-2 27.7-9.8 37.2-22.1 1 1.3 2 2.6 3 4-17.9 25.7-58.4 32.7-85.1 10.2z"/>
    <path class="st0" d="m128.2 19.9c-1.4 1-2.7 2-4 3-1.5-1.4-3-2.8-4.6-4.2-8-6.9-17.2-11.3-27.6-12.8-14.3-2-27.4 1-39.4 9.1-0.5 0.4-1.2 0.6-1.8 0.9-2.8 1.2-5.6 2.2-8.3 3.6-1.7 0.8-3.1 2.1-4.9 3.1 0.3-0.5 0.6-1.1 1-1.5 7.2-8.2 15.8-14.3 26.2-17.7 7.8-2.8 15.9-3.8 24.2-3 13.2 1.1 24.8 6.3 34.7 15 1.5 1.4 3 3 4.5 4.5z"/>
    <path class="st0" d="m74.6 57.3c0.3-0.8 0.5-1.1 0.6-1.5 0.4-1.2 1.2-1.9 2.4-2.2 3.5-0.7 7-1.5 10.6-2.3 4.1-0.9 8.2-1.7 12.3-2.6 6.6-1.5 13.2-3 19.9-4.4 7.3-1.6 14.7-3.1 22.1-4.7 2.9-0.6 5.8-1.3 8.8-1.8 2.8-0.5 5.7-0.9 8.6-1.1 1.7-0.1 3.4 0.3 4.9 0.5-2.2 0.6-4.6 1.4-7.1 1.9-6.3 1.4-12.7 2.7-19 4-8.4 1.8-16.8 3.7-25.2 5.5-6.3 1.3-12.7 2.5-19 3.9-5.1 1.1-10.2 2.4-15.3 3.6-1.6 0.5-3 0.8-4.6 1.2z"/>
    <path class="st0" d="m29 36.3c1.4 1.1 2.6 2.1 3.9 3.2-0.8 2.6-1.7 5.3-2.3 8.1-2.3 10-1.8 19.8 1.5 29.5 0.4 1.1 0.3 1.9-0.5 2.8-0.9 1-1.6 2.1-2.5 3.3-3.3-7.6-4.8-15.4-4.8-23.5-0.1-8.1 1.5-15.8 4.7-23.4z"/>
    <path class="st0" d="m136.6 45.4c1.6-0.3 3.1-0.6 4.7-1 1.2 4.1 1.9 8.1 2 12.2 0 3.6-0.2 7.1-0.5 10.7-0.1 0.8-0.6 1.5-0.9 2.4-1.4-1.2-2.5-2.1-3.6-3.1-0.2-0.2-0.3-0.6-0.2-0.8 0.5-6.7 0.1-13.3-1.4-19.9-0.1-0.2-0.1-0.2-0.1-0.5z"/>
    <path class="st0" d="m139.7 38.7c-1.8 0.4-3.2 0.8-4.6 1.1-0.2 0-0.6-0.2-0.8-0.5-0.6-1.2-1.1-2.5-1.6-3.7-0.1-0.2-0.1-0.6 0-0.9 0.8-1.4 1.7-2.8 2.8-4.6 1.5 2.9 2.8 5.6 4.2 8.6z"/>
   </g>
   <text x="-430.92624" y="90.233398" fill="#1a1a1a" font-family="Calibri" font-size="5.6389px" font-weight="400" letter-spacing="0px" stroke-width=".26458" word-spacing="0px" style="line-height:125%" xml:space="preserve"><tspan x="-430.92624" y="90.233398" fill="#1a1a1a" stroke-width=".26458"><tspan dx="0" dy="0" fill="#1a1a1a" font-family="Calibri" font-size="5.6389px" font-weight="400" stroke-width=".26458"> </tspan></tspan></text>
  </g>
 </g>
</svg>
